<?xml version="1.0" encoding="UTF-8"?> <!-- Generator: Adobe Illustrator 24.1.2, SVG Export Plug-In . SVG Version: 6.00 Build 0) --> <svg xmlns="http://www.w3.org/2000/svg" xmlns:xlink="http://www.w3.org/1999/xlink" version="1.1" x="0px" y="0px" viewBox="0 0 1052 231" style="enable-background:new 0 0 1052 231;" xml:space="preserve"> <style type="text/css"> .st0{fill:#FFE647;} .st1{fill:#FFFF00;} .st2{fill:none;stroke:#000000;stroke-width:6;stroke-miterlimit:10;} .st3{stroke:#000000;stroke-width:3;stroke-miterlimit:10;} </style> <g id="Layer_2"> </g> <g id="Layer_1"> <g> <path d="M42.85,94.98c-11.4,0-20.46-2.35-27.18-7.06C8.95,83.21,5.47,76.45,5.24,67.63h20.99c0.86,7.68,6.37,11.53,16.51,11.53 c3.77,0,6.97-0.7,9.61-2.09c2.63-1.39,3.95-3.52,3.95-6.38c0-1.96-0.83-3.6-2.48-4.92c-1.65-1.32-3.32-2.24-5.01-2.77 c-1.69-0.53-4.89-1.36-9.61-2.49c-0.24-0.07-0.39-0.13-0.47-0.17c-0.08-0.04-0.2-0.07-0.35-0.11c-0.16-0.04-0.32-0.06-0.47-0.06 c-3.62-0.83-6.58-1.56-8.9-2.2c-2.32-0.64-4.95-1.62-7.9-2.94c-2.95-1.32-5.29-2.77-7.01-4.35c-1.73-1.58-3.2-3.67-4.42-6.27 c-1.22-2.6-1.83-5.52-1.83-8.76c0-8.29,3.08-14.5,9.25-18.64c6.17-4.14,14.25-6.21,24.23-6.21c9.59,0,17.43,2.11,23.52,6.33 c6.09,4.22,9.33,10.4,9.73,18.53h-20.4c-0.39-3.09-1.77-5.48-4.13-7.17c-2.36-1.7-5.5-2.54-9.43-2.54c-3.62,0-6.54,0.7-8.78,2.09 c-2.24,1.39-3.36,3.22-3.36,5.48c0,2.56,1.33,4.43,4.01,5.59c2.67,1.17,7.7,2.54,15.09,4.12c4.64,1.06,8.45,2.09,11.44,3.11 c2.99,1.02,6.03,2.47,9.14,4.35c3.1,1.88,5.42,4.31,6.96,7.29c1.53,2.98,2.3,6.54,2.3,10.68c0,8.21-3.24,14.65-9.73,19.32 C61.18,92.65,52.91,94.98,42.85,94.98z"></path> <path d="M154.38,83.11c-7.62,7.91-17.73,11.87-30.3,11.87c-12.58,0-22.66-3.96-30.24-11.87c-7.59-7.91-11.38-18-11.38-30.28 c0-12.28,3.79-22.37,11.38-30.28c7.58-7.91,17.66-11.87,30.24-11.87c12.57,0,22.67,3.96,30.3,11.87 c7.62,7.91,11.44,18.01,11.44,30.28C165.82,65.11,162,75.21,154.38,83.11z M124.2,78.71c6.6,0,11.65-2.39,15.15-7.18 c3.5-4.78,5.25-11.02,5.25-18.7c0-7.68-1.75-13.94-5.25-18.76c-3.5-4.82-8.55-7.23-15.15-7.23c-6.53,0-11.58,2.41-15.15,7.23 c-3.58,4.82-5.36,11.07-5.36,18.76c0,7.61,1.79,13.82,5.36,18.64C112.62,76.3,117.67,78.71,124.2,78.71z"></path> <path d="M173.95,93.06V12.26h28.06l10.26,35.37l4.83,18.42h0.24c2.2-8.89,3.77-15.03,4.72-18.42l10.38-35.37h28.3v80.79h-19.1 V52.38l0.35-16.16h-0.24c-1.97,8.06-3.26,13.07-3.89,15.03l-12.14,41.81H208.5l-12.03-41.7l-3.89-15.14h-0.24 c0.24,8.66,0.35,14.09,0.35,16.27v40.57H173.95z"></path> <path d="M340.78,83.11c-7.62,7.91-17.73,11.87-30.3,11.87c-12.58,0-22.66-3.96-30.24-11.87c-7.59-7.91-11.38-18-11.38-30.28 c0-12.28,3.79-22.37,11.38-30.28c7.58-7.91,17.66-11.87,30.24-11.87c12.57,0,22.67,3.96,30.3,11.87 c7.62,7.91,11.44,18.01,11.44,30.28C352.21,65.11,348.4,75.21,340.78,83.11z M310.6,78.71c6.6,0,11.65-2.39,15.15-7.18 c3.5-4.78,5.25-11.02,5.25-18.7c0-7.68-1.75-13.94-5.25-18.76c-3.5-4.82-8.55-7.23-15.15-7.23c-6.53,0-11.58,2.41-15.15,7.23 c-3.58,4.82-5.36,11.07-5.36,18.76c0,7.61,1.79,13.82,5.36,18.64C299.02,76.3,304.07,78.71,310.6,78.71z"></path> <path d="M393.95,94.98c-11.4,0-20.46-2.35-27.18-7.06c-6.72-4.71-10.2-11.47-10.43-20.28h20.99c0.86,7.68,6.37,11.53,16.51,11.53 c3.77,0,6.97-0.7,9.61-2.09c2.63-1.39,3.95-3.52,3.95-6.38c0-1.96-0.83-3.6-2.48-4.92c-1.65-1.32-3.32-2.24-5.01-2.77 c-1.69-0.53-4.89-1.36-9.61-2.49c-0.24-0.07-0.39-0.13-0.47-0.17c-0.08-0.04-0.2-0.07-0.35-0.11c-0.16-0.04-0.32-0.06-0.47-0.06 c-3.62-0.83-6.58-1.56-8.9-2.2c-2.32-0.64-4.95-1.62-7.9-2.94c-2.95-1.32-5.29-2.77-7.01-4.35c-1.73-1.58-3.2-3.67-4.42-6.27 c-1.22-2.6-1.83-5.52-1.83-8.76c0-8.29,3.08-14.5,9.25-18.64c6.17-4.14,14.25-6.21,24.23-6.21c9.59,0,17.43,2.11,23.52,6.33 c6.09,4.22,9.33,10.4,9.73,18.53h-20.4c-0.39-3.09-1.77-5.48-4.13-7.17c-2.36-1.7-5.5-2.54-9.43-2.54c-3.62,0-6.54,0.7-8.78,2.09 c-2.24,1.39-3.36,3.22-3.36,5.48c0,2.56,1.33,4.43,4.01,5.59c2.67,1.17,7.7,2.54,15.09,4.12c4.64,1.06,8.45,2.09,11.44,3.11 c2.99,1.02,6.03,2.47,9.14,4.35c3.1,1.88,5.42,4.31,6.96,7.29c1.53,2.98,2.3,6.54,2.3,10.68c0,8.21-3.24,14.65-9.73,19.32 C412.28,92.65,404.01,94.98,393.95,94.98z"></path> <path d="M173.72,218.06v-80.79h20.87v63.84h37.85v16.95H173.72z"></path> <path d="M235.61,218.06l30.3-80.79h21.46l30.42,80.79h-21.93l-4.95-14.58h-29.47l-4.83,14.58H235.61z M266.26,189.13h19.81 l-6.37-19.55l-3.3-11.41h-0.24c-1.34,4.82-2.48,8.63-3.42,11.41L266.26,189.13z"></path> <path d="M380.15,219.87c-12.26,0-22.26-3.94-30.01-11.81c-7.74-7.87-11.61-17.91-11.61-30.11s3.81-22.3,11.44-30.28 c7.62-7.98,17.64-11.98,30.06-11.98c9.59,0,17.61,2.37,24.05,7.12c7.31,5.27,11.51,12.69,12.62,22.26h-20.87 c-0.55-3.69-2.24-6.74-5.07-9.15c-2.83-2.41-6.45-3.62-10.85-3.62c-6.6,0-11.61,2.35-15.03,7.06c-3.42,4.71-5.13,10.9-5.13,18.59 c0,7.53,1.85,13.67,5.54,18.42c3.69,4.75,8.61,7.12,14.74,7.12c4.56,0,8.31-1.24,11.26-3.73c2.95-2.49,4.66-5.72,5.13-9.72h20.87 c-0.63,8.14-4.01,15.03-10.14,20.68C400.55,216.82,391.55,219.87,380.15,219.87z"></path> <path d="M493.22,208.11c-7.62,7.91-17.73,11.87-30.3,11.87c-12.58,0-22.66-3.96-30.24-11.87c-7.59-7.91-11.38-18-11.38-30.28 c0-12.28,3.79-22.37,11.38-30.28c7.58-7.91,17.66-11.87,30.24-11.87c12.57,0,22.67,3.96,30.3,11.87 c7.62,7.91,11.44,18.01,11.44,30.28C504.66,190.11,500.84,200.21,493.22,208.11z M463.04,203.71c6.6,0,11.65-2.39,15.15-7.18 c3.5-4.78,5.25-11.02,5.25-18.7c0-7.68-1.75-13.94-5.25-18.76c-3.5-4.82-8.55-7.23-15.15-7.23c-6.53,0-11.58,2.41-15.15,7.23 c-3.58,4.82-5.36,11.07-5.36,18.76c0,7.61,1.79,13.82,5.36,18.64C451.46,201.3,456.51,203.71,463.04,203.71z"></path> <path d="M512.79,218.06v-80.79h28.06l10.26,35.37l4.83,18.42h0.24c2.2-8.89,3.77-15.03,4.72-18.42l10.38-35.37h28.3v80.79h-19.1 v-40.68l0.35-16.16h-0.24c-1.97,8.06-3.26,13.07-3.89,15.03l-12.14,41.81h-17.21l-12.03-41.7l-3.89-15.14h-0.24 c0.24,8.66,0.35,14.09,0.35,16.27v40.57H512.79z"></path> <path d="M645.9,219.53c-11.63,0-20.44-2.6-26.41-7.8c-5.97-5.2-8.96-12.58-8.96-22.15v-52.32h20.87v53 c0,8.81,4.83,13.22,14.5,13.22c4.64,0,8.17-1.22,10.61-3.67c2.44-2.45,3.66-5.74,3.66-9.89v-52.66h20.87v52.32 c0,9.49-2.97,16.86-8.9,22.09C666.19,216.91,657.45,219.53,645.9,219.53z"></path> <path d="M692,218.06v-80.79h20.99l25,40.57l5.78,10.28h0.24c-0.16-6.48-0.24-10.66-0.24-12.54v-38.31h20.4v80.79h-20.99l-24.76-40 l-6.01-10.85h-0.24c0.16,6.93,0.24,11.34,0.24,13.22v37.63H692z"></path> <path d="M775.82,218.06v-80.79h20.87v80.79H775.82z"></path> <path d="M808.24,218.06v-80.79h35.96c11.71,0,21.14,3.73,28.3,11.19c7.15,7.46,10.73,17.37,10.73,29.72 c0,14.54-4.87,25.39-14.62,32.54c-6.84,4.9-15.41,7.34-25.7,7.34H808.24z M829.11,201.22h12.26c6.76,0,11.91-1.98,15.44-5.93 s5.31-9.66,5.31-17.12s-1.81-13.35-5.42-17.68c-3.62-4.33-8.65-6.5-15.09-6.5h-12.5V201.22z"></path> <path d="M880.16,218.06l30.3-80.79h21.46l30.42,80.79h-21.93l-4.95-14.58h-29.47l-4.83,14.58H880.16z M910.81,189.13h19.81 l-6.37-19.55l-3.3-11.41h-0.24c-1.34,4.82-2.48,8.63-3.42,11.41L910.81,189.13z"></path> <path d="M968.23,218.06v-80.79h35.96c11.71,0,21.14,3.73,28.3,11.19c7.15,7.46,10.73,17.37,10.73,29.72 c0,14.54-4.87,25.39-14.62,32.54c-6.84,4.9-15.41,7.34-25.7,7.34H968.23z M989.1,201.22h12.26c6.76,0,11.91-1.98,15.44-5.93 s5.31-9.66,5.31-17.12s-1.81-13.35-5.42-17.68c-3.62-4.33-8.65-6.5-15.09-6.5h-12.5V201.22z"></path> </g> <g> <path d="M447.8,58.5V45.28h52.69V58.5H447.8z"></path> <path d="M499.78,58.5V45.28h52.69V58.5H499.78z"></path> <path d="M551.76,58.5V45.28h52.69V58.5H551.76z"></path> </g> <path d="M746.48,18.92C737.76,10.2,726.16,5.4,713.83,5.4c-5.27,0-10.41,0.88-15.31,2.6c2.5,1.16,4.9,2.55,7.18,4.14 c2.65-0.54,5.37-0.82,8.13-0.82c10.75,0,20.85,4.19,28.45,11.79c5.44,5.44,9.13,12.16,10.79,19.48c-3.25-1.83-7.65-3.45-13.17-4.85 c-5.5-1.4-11.84-2.5-18.73-3.28c0,0,0,0,0,0c-0.14-0.36-0.29-0.71-0.44-1.07c0,0,0-0.01,0-0.01c-0.15-0.35-0.3-0.7-0.46-1.04 c0-0.01-0.01-0.02-0.01-0.03c-0.16-0.34-0.32-0.68-0.48-1.01c-0.01-0.02-0.02-0.03-0.02-0.05c-0.16-0.33-0.33-0.65-0.49-0.98 c-0.01-0.02-0.02-0.05-0.04-0.07c-0.16-0.31-0.33-0.63-0.5-0.94c-0.02-0.03-0.03-0.06-0.05-0.09c-0.17-0.3-0.34-0.6-0.51-0.9 c-0.02-0.04-0.05-0.08-0.07-0.12c-0.17-0.29-0.34-0.57-0.52-0.85c-0.03-0.05-0.06-0.1-0.09-0.15c-0.17-0.27-0.34-0.54-0.52-0.81 c-0.04-0.06-0.08-0.12-0.11-0.17c-0.17-0.26-0.35-0.51-0.52-0.77c-0.05-0.07-0.09-0.13-0.14-0.2c-0.17-0.24-0.35-0.49-0.52-0.73 c-0.05-0.07-0.11-0.15-0.16-0.22c-0.17-0.23-0.34-0.46-0.52-0.69c-0.06-0.08-0.12-0.16-0.19-0.25c-0.17-0.22-0.34-0.44-0.52-0.65 c-0.07-0.09-0.14-0.18-0.21-0.26c-0.17-0.21-0.35-0.42-0.52-0.62c-0.08-0.09-0.15-0.19-0.23-0.28c-0.17-0.2-0.35-0.4-0.53-0.6 c-0.08-0.09-0.16-0.19-0.25-0.28c-0.19-0.21-0.38-0.41-0.57-0.62c-0.08-0.08-0.15-0.16-0.23-0.24c-0.27-0.28-0.54-0.56-0.82-0.84 c-0.2-0.2-0.4-0.39-0.6-0.59c-0.05-0.05-0.1-0.09-0.14-0.14c-0.19-0.18-0.38-0.36-0.57-0.54c-0.01-0.01-0.02-0.02-0.03-0.03 c-4.68-4.32-10.11-7.57-15.98-9.63c0,0,0,0,0,0c-1.17-0.41-2.37-0.77-3.57-1.09c-0.06-0.02-0.12-0.03-0.17-0.05 c-0.25-0.06-0.49-0.12-0.74-0.18c-0.09-0.02-0.18-0.04-0.27-0.06c-0.23-0.05-0.47-0.11-0.71-0.16c-0.1-0.02-0.21-0.04-0.31-0.07 c-0.23-0.05-0.46-0.1-0.69-0.14c-0.11-0.02-0.22-0.04-0.33-0.06c-0.23-0.04-0.46-0.09-0.69-0.12c-0.08-0.01-0.16-0.02-0.23-0.04 c-0.42-0.07-0.85-0.13-1.27-0.19c-0.16-0.02-0.33-0.05-0.49-0.07c-0.17-0.02-0.34-0.04-0.52-0.06c-0.18-0.02-0.37-0.04-0.55-0.06 c-0.16-0.02-0.33-0.03-0.49-0.05c-0.2-0.02-0.39-0.03-0.59-0.05c-0.16-0.01-0.31-0.02-0.47-0.03c-0.21-0.01-0.42-0.03-0.63-0.04 c-0.15-0.01-0.29-0.02-0.44-0.02c-0.24-0.01-0.47-0.02-0.71-0.03c-0.12,0-0.24-0.01-0.36-0.01c-0.36-0.01-0.72-0.01-1.08-0.01 c-12.33,0-23.93,4.8-32.65,13.52c-8.59,8.59-13.38,19.98-13.52,32.11c-0.01,0.18-0.02,0.36-0.02,0.55c0,0.18,0.01,0.37,0.02,0.55 c0.14,12.12,4.93,23.5,13.52,32.09c8.72,8.72,20.31,13.52,32.65,13.52c0.36,0,0.71,0,1.06-0.01c0.03,0,0.05,0,0.08,0 c4.88-0.12,9.62-0.99,14.17-2.59c-2.5-1.16-4.91-2.55-7.19-4.14c-1.31,0.27-2.64,0.47-3.98,0.61c-0.1,0.01-0.19,0.02-0.29,0.03 c-0.24,0.02-0.48,0.05-0.72,0.06c-0.15,0.01-0.29,0.02-0.44,0.03c-0.2,0.01-0.39,0.03-0.59,0.04c-0.2,0.01-0.4,0.02-0.61,0.02 c-0.15,0.01-0.29,0.01-0.44,0.02c-0.35,0.01-0.7,0.01-1.05,0.01c-10.75,0-20.85-4.19-28.45-11.79 c-5.43-5.43-9.12-12.15-10.78-19.46c3.25,1.82,7.64,3.44,13.15,4.84c5.51,1.4,11.86,2.5,18.75,3.28 c2.29,5.75,5.75,11.02,10.25,15.53c8.72,8.72,20.31,13.52,32.65,13.52c12.33,0,23.93-4.8,32.65-13.52 C755.2,75.49,760,63.9,760,51.56C760,39.23,755.2,27.64,746.48,18.92z M738.44,43.49c12.36,3.14,15.63,6.66,15.63,8.09 s-3.27,4.94-15.63,8.09c-4.55,1.16-9.71,2.1-15.3,2.82c0.06-0.26,0.12-0.52,0.18-0.78c0.02-0.09,0.04-0.18,0.06-0.27 c0.04-0.18,0.08-0.37,0.12-0.55c0.02-0.09,0.04-0.19,0.06-0.28c0.05-0.23,0.09-0.46,0.13-0.69c0.01-0.04,0.02-0.08,0.02-0.12 c0.05-0.26,0.09-0.52,0.13-0.79c0.01-0.09,0.03-0.18,0.04-0.27c0.03-0.19,0.06-0.38,0.09-0.57c0.01-0.09,0.03-0.18,0.04-0.27 c0.03-0.25,0.07-0.49,0.1-0.74c0-0.03,0.01-0.05,0.01-0.08c0.03-0.27,0.06-0.54,0.09-0.81c0.01-0.09,0.02-0.17,0.02-0.26 c0.02-0.2,0.04-0.4,0.05-0.6c0.01-0.09,0.01-0.17,0.02-0.26c0.02-0.26,0.04-0.53,0.06-0.8c0-0.01,0-0.02,0-0.03 c0.02-0.28,0.03-0.55,0.04-0.83c0-0.08,0.01-0.16,0.01-0.25c0.01-0.2,0.01-0.41,0.02-0.62c0-0.08,0-0.16,0.01-0.25 c0-0.28,0.01-0.55,0.01-0.83c0-0.34-0.01-0.69-0.01-1.03c0-0.07,0-0.14,0-0.21c-0.01-0.32-0.02-0.65-0.04-0.97 c0-0.08-0.01-0.17-0.01-0.25c-0.01-0.28-0.03-0.56-0.05-0.84c-0.01-0.1-0.01-0.19-0.02-0.29c-0.02-0.26-0.04-0.52-0.07-0.78 c-0.01-0.13-0.02-0.26-0.04-0.39c-0.03-0.27-0.06-0.53-0.09-0.8c-0.02-0.16-0.04-0.31-0.06-0.47c-0.02-0.15-0.04-0.29-0.06-0.44 c-0.04-0.29-0.08-0.59-0.13-0.88c-0.02-0.1-0.03-0.2-0.05-0.29c-0.1-0.63-0.22-1.26-0.35-1.89c-0.01-0.04-0.02-0.08-0.02-0.12 c-0.09-0.42-0.18-0.84-0.28-1.26C728.74,41.38,733.89,42.33,738.44,43.49z M668.96,62.48c-5.6-0.72-10.76-1.67-15.31-2.82 c-11.88-3.02-15.36-6.39-15.61-7.91c0-0.06,0-0.12,0-0.18c0-0.06,0-0.11,0-0.17c0.25-1.52,3.73-4.89,15.61-7.91 c4.55-1.16,9.72-2.1,15.32-2.82c-0.86,3.55-1.3,7.2-1.3,10.9C667.66,55.29,668.1,58.95,668.96,62.48z M652.18,37.74 c-5.51,1.4-9.9,3.02-13.16,4.84c1.66-7.32,5.35-14.04,10.79-19.47c7.6-7.6,17.71-11.79,28.45-11.79c0.3,0,0.6,0,0.91,0.01 c0.05,0,0.11,0,0.16,0c0.29,0.01,0.58,0.02,0.87,0.03c0.06,0,0.11,0.01,0.17,0.01c0.3,0.02,0.59,0.03,0.89,0.05 c0.02,0,0.03,0,0.05,0c0.29,0.02,0.57,0.05,0.86,0.07c0.05,0.01,0.11,0.01,0.16,0.02c0.28,0.03,0.57,0.06,0.85,0.09 c0.06,0.01,0.12,0.01,0.18,0.02c0.29,0.04,0.57,0.07,0.86,0.12c0.03,0,0.06,0.01,0.09,0.01c0.27,0.04,0.53,0.08,0.8,0.13 c0.05,0.01,0.11,0.02,0.16,0.03c0.28,0.05,0.55,0.1,0.82,0.15c0.07,0.01,0.13,0.03,0.2,0.04c0.27,0.06,0.55,0.11,0.82,0.17 c0.05,0.01,0.09,0.02,0.13,0.03c0.25,0.06,0.5,0.12,0.75,0.18c0.05,0.01,0.11,0.03,0.16,0.04c0.27,0.07,0.53,0.14,0.79,0.21 c0.07,0.02,0.14,0.04,0.21,0.06c0.26,0.07,0.52,0.15,0.78,0.23c0.06,0.02,0.11,0.03,0.17,0.05c0.23,0.07,0.47,0.15,0.7,0.22 c0.06,0.02,0.11,0.04,0.17,0.05c0.26,0.08,0.51,0.17,0.76,0.26c0.07,0.03,0.15,0.05,0.22,0.08c0.25,0.09,0.5,0.18,0.75,0.28 c0.06,0.02,0.13,0.05,0.19,0.07c0.22,0.09,0.44,0.17,0.66,0.26c0.05,0.02,0.11,0.04,0.16,0.07c0.25,0.1,0.49,0.21,0.74,0.32 c0.07,0.03,0.15,0.07,0.22,0.1c0.24,0.11,0.48,0.22,0.72,0.33c0.07,0.03,0.14,0.06,0.2,0.1c0.21,0.1,0.43,0.21,0.64,0.31 c0.05,0.02,0.09,0.05,0.14,0.07v0c0.66,0.33,1.31,0.68,1.95,1.05c0.08,0.05,0.16,0.09,0.24,0.14c0.15,0.09,0.29,0.17,0.44,0.26 c0.07,0.04,0.13,0.08,0.2,0.12c0.21,0.13,0.42,0.26,0.63,0.39c0,0,0.01,0,0.01,0c0.21,0.13,0.41,0.27,0.62,0.4 c0.07,0.04,0.13,0.09,0.2,0.14c0.14,0.09,0.28,0.19,0.42,0.28c0.08,0.05,0.16,0.11,0.23,0.16c0.13,0.09,0.26,0.18,0.38,0.27 c0.08,0.06,0.16,0.11,0.24,0.17c0.13,0.09,0.26,0.19,0.38,0.28c0.07,0.05,0.15,0.11,0.22,0.16c0.15,0.11,0.29,0.23,0.44,0.34 c0.05,0.04,0.1,0.08,0.15,0.12c0.2,0.15,0.39,0.31,0.58,0.47c0.05,0.04,0.1,0.08,0.15,0.12c0.14,0.12,0.29,0.24,0.43,0.36 c0.07,0.06,0.14,0.12,0.21,0.18c0.12,0.11,0.24,0.21,0.37,0.32c0.07,0.06,0.15,0.13,0.22,0.19c0.12,0.11,0.24,0.21,0.35,0.32 c0.07,0.06,0.14,0.13,0.21,0.19c0.13,0.12,0.25,0.23,0.37,0.35c0.06,0.06,0.12,0.11,0.18,0.17c0.18,0.18,0.36,0.35,0.54,0.53 c0.22,0.22,0.44,0.44,0.65,0.67c0.07,0.08,0.14,0.15,0.21,0.23c0.14,0.15,0.28,0.3,0.42,0.45c0.08,0.09,0.17,0.19,0.25,0.28 c0.12,0.14,0.24,0.27,0.36,0.41c0.09,0.1,0.18,0.2,0.26,0.3c0.11,0.13,0.22,0.26,0.33,0.4c0.09,0.11,0.18,0.21,0.27,0.32 c0.11,0.13,0.21,0.26,0.31,0.39c0.19,0.24,0.37,0.47,0.56,0.72c0.07,0.09,0.14,0.18,0.21,0.27c0.11,0.15,0.23,0.31,0.34,0.46 c0.06,0.08,0.12,0.17,0.18,0.25c0.12,0.16,0.23,0.32,0.34,0.49c0.05,0.07,0.1,0.15,0.15,0.22c0.12,0.17,0.24,0.35,0.35,0.53 c0.03,0.05,0.07,0.11,0.1,0.16c0.72,1.11,1.39,2.25,1.99,3.41c0.01,0.01,0.01,0.03,0.02,0.04c0.12,0.24,0.24,0.47,0.36,0.71 c0,0,0,0,0,0c-5.87-0.46-12.05-0.7-18.36-0.7C679.51,33.11,663.94,34.75,652.18,37.74z M673.59,51.56c0-3.96,0.57-7.85,1.7-11.6 c6.55-0.61,13.55-0.93,20.75-0.93c7.21,0,14.22,0.32,20.78,0.93c0.01,0.02,0.01,0.05,0.02,0.07c0.11,0.36,0.21,0.73,0.31,1.1 c0.03,0.12,0.06,0.24,0.09,0.36c0.04,0.16,0.08,0.31,0.12,0.47c0.03,0.13,0.06,0.26,0.09,0.38c0.04,0.18,0.08,0.35,0.12,0.53 c0.05,0.22,0.09,0.44,0.14,0.66c0.03,0.14,0.05,0.28,0.08,0.42c0.03,0.15,0.06,0.3,0.08,0.45c0.02,0.14,0.05,0.27,0.07,0.41 c0.03,0.17,0.06,0.35,0.08,0.53c0.02,0.11,0.04,0.22,0.05,0.33c0.04,0.27,0.08,0.54,0.11,0.81c0.01,0.11,0.03,0.22,0.04,0.33 c0.02,0.19,0.04,0.38,0.06,0.57c0.01,0.11,0.02,0.22,0.03,0.33c0.02,0.24,0.04,0.48,0.06,0.72c0,0.05,0.01,0.1,0.01,0.16 c0.02,0.29,0.04,0.58,0.05,0.88c0,0.09,0.01,0.18,0.01,0.27c0.01,0.22,0.02,0.44,0.02,0.66c0,0.09,0.01,0.18,0.01,0.27 c0.01,0.3,0.01,0.6,0.01,0.9c0,0.26,0,0.52-0.01,0.77c0,0.09-0.01,0.18-0.01,0.27c0,0.17-0.01,0.33-0.01,0.5 c0,0.11-0.01,0.23-0.02,0.34c-0.01,0.14-0.01,0.29-0.02,0.43c-0.01,0.13-0.02,0.25-0.02,0.37c-0.01,0.13-0.02,0.26-0.03,0.39 c-0.01,0.13-0.02,0.27-0.03,0.4c-0.01,0.12-0.02,0.24-0.03,0.35c-0.01,0.14-0.03,0.29-0.04,0.43c-0.01,0.11-0.02,0.21-0.03,0.32 c-0.02,0.15-0.04,0.3-0.05,0.46c-0.01,0.09-0.02,0.19-0.04,0.28c-0.02,0.16-0.04,0.33-0.07,0.49c-0.01,0.08-0.02,0.15-0.03,0.23 c-0.03,0.18-0.05,0.36-0.08,0.53c-0.01,0.05-0.02,0.11-0.03,0.16c-0.03,0.2-0.07,0.4-0.11,0.6c0,0.01,0,0.01,0,0.02 c-0.27,1.44-0.61,2.86-1.03,4.26c0,0,0,0,0,0c-6.55,0.61-13.56,0.93-20.77,0.93c-7.2,0-14.21-0.32-20.76-0.93 C674.17,59.46,673.59,55.56,673.59,51.56z M742.29,80.02c-7.6,7.6-17.71,11.79-28.45,11.79c-10.75,0-20.85-4.19-28.45-11.79 c-3.17-3.17-5.75-6.78-7.67-10.69c5.87,0.46,12.03,0.7,18.34,0.7c16.53,0,32.11-1.64,43.86-4.63c5.52-1.4,9.91-3.02,13.17-4.85 C751.41,67.87,747.72,74.58,742.29,80.02z"></path> </g> </svg> 